<svg width="64" height="64" viewBox="0 0 64 64" fill="none" xmlns="http://www.w3.org/2000/svg">
  <defs>
    <linearGradient id="g" x1="0" y1="0" x2="64" y2="64" gradientUnits="userSpaceOnUse">
      <stop stop-color="#2563EB"/>
      <stop offset="1" stop-color="#7C3AED"/>
    </linearGradient>
  </defs>
  <rect width="64" height="64" rx="16" fill="url(#g)"/>
  <path d="M20 18h24a4 4 0 0 1 4 4v18a3 3 0 0 1-3 3h-1a4 4 0 0 1-8 0H28a4 4 0 0 1-8 0h-1a3 3 0 0 1-3-3V22a4 4 0 0 1 4-4Z" fill="white" fill-opacity="0.95"/>
  <rect x="21" y="23" width="9" height="8" rx="1.5" fill="#2563EB"/>
  <rect x="34" y="23" width="9" height="8" rx="1.5" fill="#7C3AED"/>
  <circle cx="24" cy="43" r="2.5" fill="#09090B"/>
  <circle cx="40" cy="43" r="2.5" fill="#09090B"/>
</svg>
